<svg xmlns="http://www.w3.org/2000/svg" xmlns:xlink="http://www.w3.org/1999/xlink" width="189" zoomAndPan="magnify" viewBox="0 0 141.75 141.750002" height="189" preserveAspectRatio="xMidYMid meet" version="1.0"><defs><g/><clipPath id="0208e301bb"><path d="M 57 128 L 78 128 L 78 141.5 L 57 141.5 Z M 57 128 " clip-rule="nonzero"/></clipPath></defs><path fill="#ff914d" d="M 121.230469 16.371094 C 127.4375 24.132812 125.246094 37.222656 115.710938 48.222656 C 112.472656 51.960938 109.171875 55.371094 105.949219 58.449219 L 105.949219 58.453125 C 96.425781 67.554688 87.527344 73.796875 82.566406 77.1875 C 82.332031 81.835938 78.488281 85.535156 73.78125 85.535156 C 70.292969 85.535156 67.285156 83.503906 65.863281 80.570312 C 65.851562 80.550781 65.839844 80.527344 65.832031 80.507812 C 65.289062 79.367188 64.984375 78.085938 64.984375 76.738281 C 64.984375 71.878906 68.921875 67.941406 73.78125 67.941406 C 74.707031 67.941406 75.601562 68.085938 76.4375 68.351562 L 76.441406 68.351562 C 76.933594 68.507812 77.40625 68.707031 77.855469 68.945312 C 83.707031 65.671875 96.878906 57.460938 106.523438 47.339844 C 106.523438 47.335938 106.523438 47.335938 106.523438 47.335938 C 113.492188 40.015625 118.613281 31.691406 117.78125 23.503906 C 115.941406 5.425781 95.824219 -0.0117188 73.78125 12.019531 C 71.878906 11.734375 69.925781 11.589844 67.933594 11.589844 C 49.734375 11.589844 34.804688 23.789062 30.480469 40.527344 L 30.480469 40.53125 C 13.308594 53.78125 12.011719 65.890625 13.863281 73.804688 C 12.507812 61.589844 20.542969 51.015625 29.878906 43.289062 L 29.878906 43.285156 C 35.921875 38.28125 42.507812 34.472656 47.445312 32.175781 C 47.824219 27.671875 51.601562 24.132812 56.207031 24.132812 C 57.566406 24.132812 58.855469 24.445312 60.007812 24.996094 C 62.960938 26.414062 65.003906 29.429688 65.003906 32.929688 C 65.003906 37.785156 61.0625 41.726562 56.207031 41.726562 C 54.082031 41.726562 52.132812 40.96875 50.613281 39.714844 L 50.613281 39.71875 C 44.964844 42.046875 36.109375 47.765625 29.421875 54.917969 C 24.183594 60.515625 20.273438 66.988281 20.273438 73.402344 C 20.273438 83.582031 30.570312 93.988281 46.53125 91.28125 C 48.105469 94.695312 49.394531 98.464844 50.167969 102.839844 C 50.167969 102.839844 61.382812 102.839844 67.933594 102.839844 C 74.484375 102.839844 85.695312 102.839844 85.695312 102.839844 C 88.855469 84.988281 100.609375 77.210938 104.988281 62.449219 C 112.542969 55.757812 119 48.714844 122.09375 43.105469 C 128.128906 32.152344 127.09375 22.410156 121.230469 16.371094 Z M 114.050781 27.386719 C 113.898438 28.839844 113.597656 30.273438 113.160156 31.683594 L 113.160156 31.6875 C 111.855469 35.894531 109.347656 39.914062 106.078125 43.769531 C 104.34375 33.574219 98.753906 24.792969 90.816406 18.992188 C 87.90625 16.863281 84.691406 15.140625 81.230469 13.890625 C 103.835938 3.558594 115.308594 15.183594 114.050781 27.386719 Z M 25.101562 67.953125 L 25.101562 67.941406 C 25.308594 67.203125 25.582031 66.472656 25.910156 65.753906 C 26.9375 63.503906 28.359375 61.222656 30.027344 59.007812 C 31.90625 68.394531 36.769531 74.902344 41.335938 82.039062 C 42.375 83.664062 43.398438 85.324219 44.367188 87.054688 C 29.601562 88.878906 22.277344 77.761719 25.101562 67.953125 Z M 25.101562 67.953125 " fill-opacity="1" fill-rule="nonzero"/><path fill="#ffffff" d="M 60.691406 32.929688 C 60.691406 35.40625 58.683594 37.414062 56.207031 37.414062 C 53.730469 37.414062 51.722656 35.40625 51.722656 32.929688 C 51.722656 30.453125 53.730469 28.445312 56.207031 28.445312 C 58.683594 28.445312 60.691406 30.453125 60.691406 32.929688 Z M 60.691406 32.929688 " fill-opacity="1" fill-rule="nonzero"/><path fill="#ffffff" d="M 78.265625 76.738281 C 78.265625 79.214844 76.257812 81.222656 73.78125 81.222656 C 71.304688 81.222656 69.296875 79.214844 69.296875 76.738281 C 69.296875 74.261719 71.304688 72.253906 73.78125 72.253906 C 76.257812 72.253906 78.265625 74.261719 78.265625 76.738281 Z M 78.265625 76.738281 " fill-opacity="1" fill-rule="nonzero"/><path fill="#ffffff" d="M 109.492188 15.84375 C 106.609375 12.648438 102.335938 10.960938 97.125 10.960938 C 93.15625 10.960938 88.746094 11.9375 83.984375 13.859375 C 86.613281 15.007812 89.113281 16.441406 91.4375 18.140625 C 91.566406 18.234375 91.6875 18.328125 91.8125 18.421875 C 100.835938 13.582031 111.222656 17.101562 113.074219 26.113281 C 113.199219 22.230469 111.925781 18.539062 109.492188 15.84375 Z M 109.492188 15.84375 " fill-opacity="1" fill-rule="nonzero"/><path fill="#ffffff" d="M 40.445312 82.609375 C 40.335938 82.433594 40.222656 82.265625 40.113281 82.089844 C 32.992188 82.195312 27.382812 78.503906 25.605469 73.140625 C 25.792969 75.75 26.703125 78.277344 28.285156 80.375 C 31.109375 84.128906 35.710938 86.195312 41.234375 86.195312 C 41.691406 86.195312 42.160156 86.179688 42.632812 86.152344 C 42.003906 85.085938 41.300781 83.945312 40.445312 82.609375 Z M 40.445312 82.609375 " fill-opacity="1" fill-rule="nonzero"/><path fill="#ffffff" d="M 85.695312 110.582031 C 85.695312 112.792969 83.910156 114.582031 81.703125 114.582031 L 54.164062 114.582031 C 51.957031 114.582031 50.167969 112.792969 50.167969 110.582031 C 50.167969 108.378906 51.957031 106.589844 54.164062 106.589844 L 81.703125 106.589844 C 83.910156 106.589844 85.695312 108.378906 85.695312 110.582031 Z M 85.695312 110.582031 " fill-opacity="1" fill-rule="nonzero"/><path fill="#ffffff" d="M 83.773438 121.734375 C 83.773438 123.945312 81.984375 125.734375 79.777344 125.734375 L 56.089844 125.734375 C 53.882812 125.734375 52.09375 123.945312 52.09375 121.734375 C 52.09375 119.53125 53.882812 117.742188 56.089844 117.742188 L 79.777344 117.742188 C 81.984375 117.742188 83.773438 119.53125 83.773438 121.734375 Z M 83.773438 121.734375 " fill-opacity="1" fill-rule="nonzero"/><g clip-path="url(#0208e301bb)"><path fill="#ffffff" d="M 77.578125 128.894531 L 57.414062 128.894531 L 57.414062 131.238281 C 57.414062 136.882812 61.988281 141.457031 67.632812 141.457031 C 73.277344 141.457031 77.851562 136.882812 77.851562 131.238281 L 77.851562 128.894531 Z M 77.578125 128.894531 " fill-opacity="1" fill-rule="nonzero"/></g><g fill="#ff914d" fill-opacity="1"><g transform="translate(70.741377, 47.906046)"><g><path d="M 0.5625 0 L 0.5625 -4.515625 L 1.03125 -4.515625 L 1.03125 -2.765625 L 1.09375 -2.75 C 1.320312 -3.101562 1.65625 -3.28125 2.09375 -3.28125 C 2.476562 -3.28125 2.757812 -3.179688 2.9375 -2.984375 C 3.113281 -2.785156 3.203125 -2.484375 3.203125 -2.078125 L 3.203125 0 L 2.71875 0 L 2.71875 -2.0625 C 2.71875 -2.257812 2.691406 -2.414062 2.640625 -2.53125 C 2.597656 -2.644531 2.523438 -2.726562 2.421875 -2.78125 C 2.316406 -2.84375 2.175781 -2.875 2 -2.875 C 1.707031 -2.875 1.472656 -2.773438 1.296875 -2.578125 C 1.117188 -2.390625 1.03125 -2.082031 1.03125 -1.65625 L 1.03125 0 Z M 0.5625 0 "/></g></g><g transform="translate(74.455529, 47.906046)"><g><path d="M 3.078125 -1.5 L 0.859375 -1.5 C 0.867188 -1.113281 0.960938 -0.828125 1.140625 -0.640625 C 1.316406 -0.453125 1.554688 -0.359375 1.859375 -0.359375 C 2.085938 -0.359375 2.269531 -0.398438 2.40625 -0.484375 C 2.550781 -0.566406 2.660156 -0.695312 2.734375 -0.875 L 2.796875 -0.875 L 3.109375 -0.6875 C 3.015625 -0.457031 2.863281 -0.273438 2.65625 -0.140625 C 2.457031 -0.00390625 2.191406 0.0625 1.859375 0.0625 C 1.546875 0.0625 1.273438 0 1.046875 -0.125 C 0.828125 -0.25 0.65625 -0.4375 0.53125 -0.6875 C 0.414062 -0.9375 0.359375 -1.242188 0.359375 -1.609375 C 0.359375 -1.972656 0.421875 -2.28125 0.546875 -2.53125 C 0.671875 -2.78125 0.84375 -2.96875 1.0625 -3.09375 C 1.289062 -3.21875 1.546875 -3.28125 1.828125 -3.28125 C 2.242188 -3.28125 2.566406 -3.164062 2.796875 -2.9375 C 3.023438 -2.707031 3.140625 -2.363281 3.140625 -1.90625 C 3.140625 -1.71875 3.132812 -1.59375 3.125 -1.53125 Z M 2.671875 -1.90625 C 2.660156 -2.238281 2.582031 -2.484375 2.4375 -2.640625 C 2.300781 -2.796875 2.097656 -2.875 1.828125 -2.875 C 1.546875 -2.875 1.320312 -2.796875 1.15625 -2.640625 C 1 -2.484375 0.90625 -2.238281 0.875 -1.90625 Z M 2.671875 -1.90625 "/></g></g><g transform="translate(77.894776, 47.906046)"><g><path d="M 1.28125 0.0625 C 1.050781 0.0625 0.867188 0 0.734375 -0.125 C 0.609375 -0.257812 0.546875 -0.457031 0.546875 -0.71875 L 0.546875 -4.515625 L 1.03125 -4.515625 L 1.03125 -0.75 C 1.03125 -0.613281 1.054688 -0.515625 1.109375 -0.453125 C 1.160156 -0.390625 1.238281 -0.359375 1.34375 -0.359375 C 1.40625 -0.359375 1.472656 -0.367188 1.546875 -0.390625 L 1.59375 -0.390625 L 1.640625 -0.015625 C 1.609375 0.00390625 1.554688 0.0195312 1.484375 0.03125 C 1.421875 0.0507812 1.351562 0.0625 1.28125 0.0625 Z M 1.28125 0.0625 "/></g></g><g transform="translate(79.649494, 47.906046)"><g><path d="M 1.28125 0.0625 C 1.050781 0.0625 0.867188 0 0.734375 -0.125 C 0.609375 -0.257812 0.546875 -0.457031 0.546875 -0.71875 L 0.546875 -4.515625 L 1.03125 -4.515625 L 1.03125 -0.75 C 1.03125 -0.613281 1.054688 -0.515625 1.109375 -0.453125 C 1.160156 -0.390625 1.238281 -0.359375 1.34375 -0.359375 C 1.40625 -0.359375 1.472656 -0.367188 1.546875 -0.390625 L 1.59375 -0.390625 L 1.640625 -0.015625 C 1.609375 0.00390625 1.554688 0.0195312 1.484375 0.03125 C 1.421875 0.0507812 1.351562 0.0625 1.28125 0.0625 Z M 1.28125 0.0625 "/></g></g><g transform="translate(81.404212, 47.906046)"><g><path d="M 1.84375 0.0625 C 1.539062 0.0625 1.273438 0 1.046875 -0.125 C 0.828125 -0.257812 0.65625 -0.453125 0.53125 -0.703125 C 0.414062 -0.953125 0.359375 -1.253906 0.359375 -1.609375 C 0.359375 -1.960938 0.414062 -2.265625 0.53125 -2.515625 C 0.65625 -2.773438 0.828125 -2.96875 1.046875 -3.09375 C 1.273438 -3.21875 1.539062 -3.28125 1.84375 -3.28125 C 2.15625 -3.28125 2.421875 -3.21875 2.640625 -3.09375 C 2.867188 -2.96875 3.039062 -2.773438 3.15625 -2.515625 C 3.28125 -2.265625 3.34375 -1.960938 3.34375 -1.609375 C 3.34375 -1.253906 3.28125 -0.953125 3.15625 -0.703125 C 3.039062 -0.453125 2.867188 -0.257812 2.640625 -0.125 C 2.421875 0 2.15625 0.0625 1.84375 0.0625 Z M 1.84375 -0.359375 C 2.164062 -0.359375 2.410156 -0.457031 2.578125 -0.65625 C 2.753906 -0.863281 2.84375 -1.179688 2.84375 -1.609375 C 2.84375 -2.035156 2.753906 -2.347656 2.578125 -2.546875 C 2.410156 -2.753906 2.164062 -2.859375 1.84375 -2.859375 C 1.53125 -2.859375 1.285156 -2.753906 1.109375 -2.546875 C 0.941406 -2.347656 0.859375 -2.035156 0.859375 -1.609375 C 0.859375 -1.179688 0.941406 -0.863281 1.109375 -0.65625 C 1.285156 -0.457031 1.53125 -0.359375 1.84375 -0.359375 Z M 1.84375 -0.359375 "/></g></g></g></svg>